RobotoSerifTextWide-Hairline 03h serifs -15.ufo
<glyph name="numbersign" format="2">
  <advance width="729"/>
  <unicode hex="0023"/>
  <outline>
    <contour>
      <point x="110" y="0" type="line"/>
      <point x="141" y="0" type="line"/>
      <point x="381" y="750" type="line"/>
      <point x="350" y="750" type="line"/>
    </contour>
    <contour>
      <point x="56" y="259" type="line"/>
      <point x="641" y="259" type="line"/>
      <point x="641" y="301" type="line"/>
      <point x="56" y="301" type="line"/>
    </contour>
    <contour>
      <point x="111" y="469" type="line"/>
      <point x="695" y="469" type="line"/>
      <point x="695" y="511" type="line"/>
      <point x="111" y="511" type="line"/>
    </contour>
    <contour>
      <point x="349" y="0" type="line"/>
      <point x="380" y="0" type="line"/>
      <point x="620" y="750" type="line"/>
      <point x="586" y="750" type="line"/>
    </contour>
  </outline>
</glyph>
<glyph name="two" format="2">
  <advance width="664"/>
  <unicode hex="0032"/>
  <outline>
    <contour>
      <point x="400" y="37" type="line" smooth="yes"/>
      <point x="501" y="37"/>
      <point x="543" y="41"/>
      <point x="547" y="77" type="curve" smooth="yes"/>
      <point x="557" y="165" type="line"/>
      <point x="584" y="165" type="line"/>
      <point x="584" y="0" type="line"/>
      <point x="72" y="0" type="line"/>
      <point x="72" y="44" type="line"/>
      <point x="310.42169553393995" y="168.21970691684268"/>
      <point x="517.0" y="289.0"/>
      <point x="517" y="440" type="curve" smooth="yes"/>
      <point x="517.0" y="544.0"/>
      <point x="438.3529411764706" y="588.0"/>
      <point x="326" y="588" type="curve" smooth="yes"/>
      <point x="233.78199052132703" y="588.0"/>
      <point x="165.84930664764363" y="559.1126568540546"/>
      <point x="119" y="518" type="curve"/>
      <point x="135" y="547"/>
      <point x="120" y="550"/>
      <point x="147" y="554" type="curve"/>
      <point x="147" y="458" type="line"/>
      <point x="98" y="458" type="line"/>
      <point x="98" y="549" type="line"/>
      <point x="139.55375716134844" y="581.6493806267738"/>
      <point x="217.89655172413794" y="618.0"/>
      <point x="326" y="618" type="curve" smooth="yes"/>
      <point x="465.38260869565215" y="618.0"/>
      <point x="560.0" y="553.0"/>
      <point x="560" y="440" type="curve" smooth="yes"/>
      <point x="560" y="276"/>
      <point x="321" y="133"/>
      <point x="108" y="27" type="curve"/>
      <point x="104" y="29"/>
      <point x="102" y="33"/>
      <point x="104" y="37" type="curve"/>
    </contour>
  </outline>
</glyph>
<glyph name="D" format="2">
  <advance width="813"/>
  <unicode hex="0044"/>
  <anchor x="401" y="741.0" name="top"/>
  <anchor x="401" y="0.0" name="bottom"/>
  <outline>
    <contour>
      <point x="52" y="680" type="line"/>
      <point x="66" y="680" type="line" smooth="yes"/>
      <point x="114" y="680"/>
      <point x="150" y="672"/>
      <point x="150" y="647" type="curve" smooth="yes"/>
      <point x="150" y="63" type="line" smooth="yes"/>
      <point x="150" y="36"/>
      <point x="114" y="30"/>
      <point x="66" y="30" type="curve" smooth="yes"/>
      <point x="52" y="30" type="line"/>
      <point x="52" y="0" type="line"/>
      <point x="325" y="0" type="line" smooth="yes"/>
      <point x="605" y="0"/>
      <point x="758" y="141"/>
      <point x="758" y="357" type="curve" smooth="yes"/>
      <point x="758" y="574"/>
      <point x="603" y="710"/>
      <point x="325" y="710" type="curve" smooth="yes"/>
      <point x="52" y="710" type="line"/>
    </contour>
    <contour>
      <point x="325" y="680" type="line" smooth="yes"/>
      <point x="570" y="680"/>
      <point x="715" y="562"/>
      <point x="715" y="357" type="curve" smooth="yes"/>
      <point x="715" y="152"/>
      <point x="571" y="30"/>
      <point x="325" y="30" type="curve" smooth="yes"/>
      <point x="190" y="30" type="line"/>
      <point x="190" y="680" type="line"/>
    </contour>
  </outline>
</glyph>
<glyph name="R" format="2">
  <advance width="734"/>
  <unicode hex="0052"/>
  <anchor x="401" y="741.0" name="top"/>
  <anchor x="401" y="0.0" name="bottom"/>
  <outline>
    <contour>
      <point x="52" y="0" type="line"/>
      <point x="52" y="30" type="line"/>
      <point x="65" y="30" type="line" smooth="yes"/>
      <point x="113" y="30"/>
      <point x="149" y="36"/>
      <point x="149" y="63" type="curve" smooth="yes"/>
      <point x="149" y="647" type="line" smooth="yes"/>
      <point x="149" y="674"/>
      <point x="113" y="680"/>
      <point x="65" y="680" type="curve" smooth="yes"/>
      <point x="52" y="680" type="line"/>
      <point x="52" y="710" type="line"/>
      <point x="363" y="710" type="line" smooth="yes"/>
      <point x="521" y="710"/>
      <point x="623" y="638"/>
      <point x="623" y="516" type="curve" smooth="yes"/>
      <point x="623" y="416"/>
      <point x="544" y="344"/>
      <point x="432" y="324" type="curve" smooth="yes"/>
      <point x="408" y="321"/>
      <point x="388" y="319"/>
      <point x="364" y="319" type="curve" smooth="yes"/>
      <point x="179" y="319" type="line"/>
      <point x="179" y="349" type="line"/>
      <point x="364" y="349" type="line" smooth="yes"/>
      <point x="508" y="349"/>
      <point x="580" y="425"/>
      <point x="580" y="516" type="curve" smooth="yes"/>
      <point x="580" y="622"/>
      <point x="486" y="680"/>
      <point x="361" y="680" type="curve" smooth="yes"/>
      <point x="189" y="680" type="line"/>
      <point x="189" y="40" type="line" smooth="yes"/>
      <point x="189" y="33"/>
      <point x="231" y="30"/>
      <point x="264" y="30" type="curve" smooth="yes"/>
      <point x="273" y="30" type="line"/>
      <point x="273" y="0" type="line"/>
    </contour>
    <contour>
      <point x="397" y="330" type="line"/>
      <point x="431" y="345" type="line"/>
      <point x="612" y="60" type="line" smooth="yes"/>
      <point x="624.6061289004953" y="40.150570515794676"/>
      <point x="656.7073170731708" y="30"/>
      <point x="690" y="30" type="curve" smooth="yes"/>
      <point x="706" y="30" type="line"/>
      <point x="706" y="0" type="line"/>
      <point x="599" y="0" type="line"/>
    </contour>
  </outline>
</glyph>
<glyph name="V" format="2">
  <advance width="774"/>
  <unicode hex="0056"/>
  <outline>
    <contour>
      <point x="399" y="7" type="line"/>
      <point x="125" y="670" type="line"/>
      <point x="125" y="677"/>
      <point x="173" y="680"/>
      <point x="210" y="680" type="curve" smooth="yes"/>
      <point x="230" y="680" type="line"/>
      <point x="230" y="710" type="line"/>
      <point x="12" y="710" type="line"/>
      <point x="12" y="680" type="line"/>
      <point x="17" y="680" type="line"/>
      <point x="58" y="680"/>
      <point x="79" y="673"/>
      <point x="91" y="645" type="curve" smooth="yes"/>
      <point x="358" y="0" type="line"/>
      <point x="419" y="0" type="line"/>
      <point x="680" y="637" type="line" smooth="yes"/>
      <point x="693" y="669"/>
      <point x="716" y="680"/>
      <point x="756" y="680" type="curve"/>
      <point x="762" y="680" type="line"/>
      <point x="762" y="710" type="line"/>
      <point x="551" y="710" type="line"/>
      <point x="551" y="680" type="line"/>
      <point x="568" y="680" type="line" smooth="yes"/>
      <point x="605.4457831325301" y="680"/>
      <point x="652.0" y="673.0"/>
      <point x="652" y="662" type="curve"/>
      <point x="386" y="12" type="line"/>
    </contour>
  </outline>
</glyph>
<glyph name="W" format="2">
  <advance width="1104"/>
  <unicode hex="0057"/>
  <guideline x="499" y="54" angle="0" identifier="mO3hMxlbnq"/>
  <anchor x="562" y="741.0" name="top"/>
  <outline>
    <contour>
      <point x="12" y="710" type="line"/>
      <point x="12" y="680" type="line"/>
      <point x="17" y="680" type="line" smooth="yes"/>
      <point x="57" y="680"/>
      <point x="83" y="675"/>
      <point x="93" y="643" type="curve" smooth="yes"/>
      <point x="301" y="0" type="line"/>
      <point x="348" y="0" type="line"/>
      <point x="563" y="683" type="line"/>
      <point x="544" y="683" type="line"/>
      <point x="773" y="0" type="line"/>
      <point x="821" y="0" type="line"/>
      <point x="1010" y="633" type="line" smooth="yes"/>
      <point x="1020" y="668"/>
      <point x="1048" y="680"/>
      <point x="1086" y="680" type="curve" smooth="yes"/>
      <point x="1092" y="680" type="line"/>
      <point x="1092" y="710" type="line"/>
      <point x="883" y="710" type="line"/>
      <point x="883" y="680" type="line"/>
      <point x="901" y="680" type="line" smooth="yes"/>
      <point x="938.4625" y="680"/>
      <point x="982.0" y="673.0"/>
      <point x="982" y="662" type="curve"/>
      <point x="790" y="17" type="line"/>
      <point x="809" y="17" type="line"/>
      <point x="577" y="710" type="line"/>
      <point x="535" y="710" type="line"/>
      <point x="319" y="20" type="line"/>
      <point x="337" y="20" type="line"/>
      <point x="127" y="670" type="line"/>
      <point x="127" y="677"/>
      <point x="174" y="680"/>
      <point x="211" y="680" type="curve" smooth="yes"/>
      <point x="231" y="680" type="line"/>
      <point x="231" y="710" type="line"/>
    </contour>
  </outline>
</glyph>
<glyph name="m" format="2">
  <advance width="971"/>
  <unicode hex="006D"/>
  <outline>
    <contour>
      <point x="40" y="0" type="line"/>
      <point x="236" y="0" type="line"/>
      <point x="236" y="27" type="line"/>
      <point x="232" y="27" type="line" smooth="yes"/>
      <point x="205" y="27"/>
      <point x="163" y="30"/>
      <point x="163" y="37" type="curve" smooth="yes"/>
      <point x="163" y="398" type="line"/>
      <point x="163" y="398" type="line"/>
      <point x="163" y="508" type="line"/>
      <point x="40" y="508" type="line"/>
      <point x="40" y="483" type="line"/>
      <point x="53" y="481" type="line" smooth="yes"/>
      <point x="100.85695216816433" y="473.63739197412855"/>
      <point x="123" y="468"/>
      <point x="123" y="441" type="curve" smooth="yes"/>
      <point x="123" y="59" type="line" smooth="yes"/>
      <point x="123" y="33.22222222222222"/>
      <point x="89.0" y="27"/>
      <point x="43" y="27" type="curve" smooth="yes"/>
      <point x="40" y="27" type="line"/>
    </contour>
    <contour>
      <point x="583" y="0" type="line"/>
      <point x="583" y="27" type="line"/>
      <point x="580" y="27" type="line" smooth="yes"/>
      <point x="538.4142857142857" y="27"/>
      <point x="509.0" y="30.0"/>
      <point x="509.0" y="37" type="curve" smooth="yes"/>
      <point x="509" y="361" type="line" smooth="yes"/>
      <point x="509" y="469"/>
      <point x="451" y="518"/>
      <point x="353" y="518" type="curve" smooth="yes"/>
      <point x="271" y="518"/>
      <point x="209" y="482"/>
      <point x="153" y="411" type="curve"/>
      <point x="153" y="365" type="line"/>
      <point x="205" y="437"/>
      <point x="265" y="484"/>
      <point x="346" y="484" type="curve" smooth="yes"/>
      <point x="437" y="484"/>
      <point x="469" y="442"/>
      <point x="469" y="350" type="curve" smooth="yes"/>
      <point x="469" y="37" type="line" smooth="yes"/>
      <point x="469" y="30"/>
      <point x="425" y="27"/>
      <point x="398" y="27" type="curve" smooth="yes"/>
      <point x="396" y="27" type="line"/>
      <point x="396" y="0" type="line"/>
    </contour>
    <contour>
      <point x="937" y="0" type="line"/>
      <point x="937" y="27" type="line"/>
      <point x="935" y="27" type="line" smooth="yes"/>
      <point x="888.0" y="27"/>
      <point x="855" y="33.22222222222222"/>
      <point x="855" y="59" type="curve" smooth="yes"/>
      <point x="855" y="361" type="line" smooth="yes"/>
      <point x="855" y="469"/>
      <point x="797" y="518"/>
      <point x="699" y="518" type="curve" smooth="yes"/>
      <point x="617" y="518"/>
      <point x="555" y="482"/>
      <point x="499" y="411" type="curve"/>
      <point x="499" y="365" type="line"/>
      <point x="551" y="437"/>
      <point x="611" y="484"/>
      <point x="692" y="484" type="curve" smooth="yes"/>
      <point x="783" y="484"/>
      <point x="815" y="442"/>
      <point x="815" y="350" type="curve" smooth="yes"/>
      <point x="815" y="37" type="line" smooth="yes"/>
      <point x="815" y="30"/>
      <point x="771" y="27"/>
      <point x="744" y="27" type="curve" smooth="yes"/>
      <point x="742" y="27" type="line"/>
      <point x="742" y="0" type="line"/>
    </contour>
  </outline>
</glyph>
<glyph name="n" format="2">
  <advance width="660"/>
  <unicode hex="006E"/>
  <anchor x="322.0" y="551.0" name="top"/>
  <anchor x="329.0" y="0.0" name="bottom"/>
  <outline>
    <contour>
      <point x="40" y="0" type="line"/>
      <point x="235" y="0" type="line"/>
      <point x="235" y="27" type="line"/>
      <point x="231" y="27" type="line" smooth="yes"/>
      <point x="205" y="27"/>
      <point x="163" y="30"/>
      <point x="163" y="37" type="curve" smooth="yes"/>
      <point x="163" y="398" type="line"/>
      <point x="163" y="398" type="line"/>
      <point x="163" y="508" type="line"/>
      <point x="40" y="508" type="line"/>
      <point x="40" y="483" type="line"/>
      <point x="53" y="481" type="line" smooth="yes"/>
      <point x="100.85503199124827" y="473.6376873859618"/>
      <point x="123" y="468"/>
      <point x="123" y="442" type="curve" smooth="yes"/>
      <point x="123" y="59" type="line" smooth="yes"/>
      <point x="123" y="33.22222222222222"/>
      <point x="89.0" y="27"/>
      <point x="43" y="27" type="curve" smooth="yes"/>
      <point x="40" y="27" type="line"/>
    </contour>
    <contour>
      <point x="626" y="0" type="line"/>
      <point x="626" y="27" type="line"/>
      <point x="624" y="27" type="line" smooth="yes"/>
      <point x="577.0" y="27"/>
      <point x="544" y="33.22222222222222"/>
      <point x="544" y="59" type="curve" smooth="yes"/>
      <point x="544" y="361" type="line" smooth="yes"/>
      <point x="544" y="470"/>
      <point x="480" y="518"/>
      <point x="374" y="518" type="curve" smooth="yes"/>
      <point x="292" y="518"/>
      <point x="218" y="479"/>
      <point x="159" y="409" type="curve"/>
      <point x="159" y="365" type="line"/>
      <point x="214" y="437"/>
      <point x="286" y="485"/>
      <point x="367" y="485" type="curve" smooth="yes"/>
      <point x="467" y="485"/>
      <point x="504" y="444"/>
      <point x="504" y="350" type="curve" smooth="yes"/>
      <point x="504" y="37" type="line" smooth="yes"/>
      <point x="504" y="30"/>
      <point x="461" y="27"/>
      <point x="434" y="27" type="curve" smooth="yes"/>
      <point x="432" y="27" type="line"/>
      <point x="432" y="0" type="line"/>
    </contour>
  </outline>
</glyph>
<glyph name="dieresis" format="2">
  <advance width="580"/>
  <unicode hex="00A8"/>
  <anchor x="290.48" y="526.0" name="_top"/>
  <outline>
    <contour>
      <point x="175" y="655" type="curve" smooth="yes"/>
      <point x="201" y="655"/>
      <point x="219" y="669"/>
      <point x="219" y="696" type="curve" smooth="yes"/>
      <point x="219" y="722"/>
      <point x="201" y="736"/>
      <point x="175" y="736" type="curve" smooth="yes"/>
      <point x="150" y="736"/>
      <point x="131" y="722"/>
      <point x="131" y="696" type="curve" smooth="yes"/>
      <point x="131" y="669"/>
      <point x="150" y="655"/>
    </contour>
    <contour>
      <point x="409" y="655" type="curve" smooth="yes"/>
      <point x="435" y="655"/>
      <point x="453" y="669"/>
      <point x="453" y="696" type="curve" smooth="yes"/>
      <point x="453" y="722"/>
      <point x="435" y="736"/>
      <point x="409" y="736" type="curve" smooth="yes"/>
      <point x="384" y="736"/>
      <point x="365" y="722"/>
      <point x="365" y="696" type="curve" smooth="yes"/>
      <point x="365" y="669"/>
      <point x="384" y="655"/>
    </contour>
  </outline>
</glyph>
<glyph name="Ldot" format="2">
  <advance width="673"/>
  <unicode hex="013F"/>
  <outline>
    <contour>
      <point x="320" y="710" type="line"/>
      <point x="320" y="679" type="line"/>
      <point x="307" y="679" type="line" smooth="yes"/>
      <point x="247" y="679"/>
      <point x="204" y="672"/>
      <point x="204" y="643" type="curve" smooth="yes"/>
      <point x="204" y="31" type="line"/>
      <point x="426" y="31" type="line" smooth="yes"/>
      <point x="526" y="31"/>
      <point x="566" y="38"/>
      <point x="569" y="74" type="curve" smooth="yes"/>
      <point x="581" y="196" type="line"/>
      <point x="608" y="196" type="line"/>
      <point x="608" y="0" type="line"/>
      <point x="52" y="0" type="line"/>
      <point x="52" y="31" type="line"/>
      <point x="65" y="31" type="line" smooth="yes"/>
      <point x="122" y="31"/>
      <point x="164" y="38"/>
      <point x="164" y="67" type="curve" smooth="yes"/>
      <point x="164" y="643" type="line" smooth="yes"/>
      <point x="164" y="672"/>
      <point x="122" y="679"/>
      <point x="65" y="679" type="curve" smooth="yes"/>
      <point x="52" y="679" type="line"/>
      <point x="52" y="710" type="line"/>
    </contour>
    <component base="periodcentered" xOffset="420.2548" yOffset="56.54"/>
  </outline>
</glyph>
<glyph name="Eng" format="2">
  <advance width="876"/>
  <unicode hex="014A"/>
  <outline>
    <contour>
      <point x="674" y="17" type="line"/>
      <point x="674" y="-22" type="line" smooth="yes"/>
      <point x="674" y="-142"/>
      <point x="609" y="-180"/>
      <point x="516" y="-180" type="curve" smooth="yes"/>
      <point x="456" y="-180"/>
      <point x="416" y="-168"/>
      <point x="387" y="-156" type="curve"/>
      <point x="387" y="-190" type="line"/>
      <point x="413" y="-201"/>
      <point x="454" y="-212"/>
      <point x="516" y="-212" type="curve" smooth="yes"/>
      <point x="626" y="-212"/>
      <point x="710" y="-159"/>
      <point x="710" y="-22" type="curve" smooth="yes"/>
      <point x="710" y="638" type="line" smooth="yes"/>
      <point x="710" y="667"/>
      <point x="751" y="679"/>
      <point x="808" y="679" type="curve" smooth="yes"/>
      <point x="822" y="679" type="line"/>
      <point x="822" y="710" type="line"/>
      <point x="551" y="710" type="line"/>
      <point x="551" y="679" type="line"/>
      <point x="567" y="679" type="line" smooth="yes"/>
      <point x="617" y="679"/>
      <point x="674" y="671"/>
      <point x="674" y="664" type="curve" smooth="yes"/>
      <point x="674" y="30" type="line"/>
      <point x="682" y="49" type="line"/>
      <point x="223" y="710" type="line"/>
      <point x="52" y="710" type="line"/>
      <point x="52" y="679" type="line"/>
      <point x="65" y="679" type="line" smooth="yes"/>
      <point x="122" y="679"/>
      <point x="164" y="672"/>
      <point x="164" y="643" type="curve" smooth="yes"/>
      <point x="164" y="72" type="line" smooth="yes"/>
      <point x="164" y="43"/>
      <point x="122" y="31"/>
      <point x="65" y="31" type="curve" smooth="yes"/>
      <point x="52" y="31" type="line"/>
      <point x="52" y="0" type="line"/>
      <point x="324" y="0" type="line"/>
      <point x="324" y="31" type="line"/>
      <point x="308" y="31" type="line" smooth="yes"/>
      <point x="258" y="31"/>
      <point x="201" y="39"/>
      <point x="201" y="46" type="curve" smooth="yes"/>
      <point x="201" y="705" type="line"/>
      <point x="183" y="701" type="line"/>
      <point x="685" y="-33" type="line"/>
    </contour>
  </outline>
</glyph>
<glyph name="Tbar" format="2">
  <advance width="730"/>
  <unicode hex="0166"/>
  <outline>
    <contour>
      <point x="140" y="370" type="line"/>
      <point x="591" y="370" type="line"/>
      <point x="591" y="339" type="line"/>
      <point x="140" y="339" type="line"/>
    </contour>
    <component base="T" xOffset="41.33559999999999"/>
  </outline>
</glyph>
<glyph name="quoteright" format="2">
  <advance width="217"/>
  <unicode hex="2019"/>
  <outline>
    <contour>
      <point x="75" y="524" type="line"/>
      <point x="135" y="566"/>
      <point x="160" y="612"/>
      <point x="160" y="669" type="curve" smooth="yes"/>
      <point x="160" y="701"/>
      <point x="142" y="715"/>
      <point x="119" y="715" type="curve" smooth="yes"/>
      <point x="99" y="715"/>
      <point x="84" y="700"/>
      <point x="84" y="682" type="curve" smooth="yes"/>
      <point x="84" y="661"/>
      <point x="97" y="648"/>
      <point x="119" y="648" type="curve" smooth="yes"/>
      <point x="136" y="648"/>
      <point x="144" y="655"/>
      <point x="151" y="665" type="curve"/>
      <point x="146" y="665"/>
      <point x="136" y="662"/>
      <point x="137" y="661" type="curve"/>
      <point x="137" y="622"/>
      <point x="106" y="572"/>
      <point x="50" y="539" type="curve"/>
    </contour>
  </outline>
</glyph>
<glyph name="franc" format="2">
  <advance width="650"/>
  <unicode hex="20A3"/>
  <outline>
    <contour>
      <point x="212" y="393" type="line"/>
      <point x="212" y="368" type="line"/>
      <point x="532" y="365" type="line"/>
      <point x="532" y="397" type="line"/>
    </contour>
    <contour>
      <point x="235" y="679" type="line"/>
      <point x="440" y="679" type="line" smooth="yes"/>
      <point x="540" y="679"/>
      <point x="581" y="672"/>
      <point x="585" y="636" type="curve" smooth="yes"/>
      <point x="595" y="546" type="line"/>
      <point x="622" y="546" type="line"/>
      <point x="622" y="710" type="line"/>
      <point x="83" y="710" type="line"/>
      <point x="83" y="679" type="line"/>
      <point x="96" y="679" type="line" smooth="yes"/>
      <point x="153" y="679"/>
      <point x="194" y="672"/>
      <point x="194" y="643" type="curve" smooth="yes"/>
      <point x="194" y="67" type="line" smooth="yes"/>
      <point x="194" y="38"/>
      <point x="153" y="31"/>
      <point x="96" y="31" type="curve" smooth="yes"/>
      <point x="83" y="31" type="line"/>
      <point x="83" y="0" type="line"/>
      <point x="365" y="0" type="line"/>
      <point x="365" y="31" type="line"/>
      <point x="345" y="31" type="line" smooth="yes"/>
      <point x="295" y="31"/>
      <point x="235" y="32"/>
      <point x="235" y="67" type="curve" smooth="yes"/>
    </contour>
    <contour>
      <point x="83" y="220" type="line"/>
      <point x="83" y="188" type="line"/>
      <point x="419" y="188" type="line"/>
      <point x="419" y="220" type="line"/>
    </contour>
  </outline>
</glyph>
<glyph name="peso" format="2">
  <advance width="650"/>
  <unicode hex="20B1"/>
  <outline>
    <contour>
      <point x="4" y="0" type="line"/>
      <point x="280" y="0" type="line"/>
      <point x="280" y="31" type="line"/>
      <point x="248" y="31" type="line" smooth="yes"/>
      <point x="208" y="31"/>
      <point x="157" y="34"/>
      <point x="157" y="41" type="curve" smooth="yes"/>
      <point x="157" y="260" type="line"/>
      <point x="253" y="260" type="line" smooth="yes"/>
      <point x="449" y="260"/>
      <point x="543" y="354"/>
      <point x="543" y="489" type="curve" smooth="yes"/>
      <point x="543" y="624"/>
      <point x="454" y="710"/>
      <point x="259" y="710" type="curve" smooth="yes"/>
      <point x="4" y="710" type="line"/>
      <point x="4" y="679" type="line"/>
      <point x="16" y="679" type="line" smooth="yes"/>
      <point x="75" y="679"/>
      <point x="117" y="672"/>
      <point x="117" y="643" type="curve" smooth="yes"/>
      <point x="117" y="67" type="line" smooth="yes"/>
      <point x="117" y="38"/>
      <point x="75" y="31"/>
      <point x="16" y="31" type="curve" smooth="yes"/>
      <point x="4" y="31" type="line"/>
    </contour>
    <contour>
      <point x="259" y="679" type="line" smooth="yes"/>
      <point x="427" y="679"/>
      <point x="498" y="609"/>
      <point x="498" y="488" type="curve" smooth="yes"/>
      <point x="498" y="369"/>
      <point x="428" y="292"/>
      <point x="253" y="292" type="curve" smooth="yes"/>
      <point x="157" y="292" type="line"/>
      <point x="157" y="679" type="line"/>
    </contour>
    <contour>
      <point x="4" y="503" type="line"/>
      <point x="4" y="472" type="line"/>
      <point x="141" y="472" type="line"/>
      <point x="143" y="472" type="line"/>
      <point x="517" y="472" type="line"/>
      <point x="526" y="472" type="line"/>
      <point x="640" y="472" type="line"/>
      <point x="640" y="503" type="line"/>
      <point x="530" y="503" type="line"/>
      <point x="518" y="503" type="line"/>
      <point x="150" y="503" type="line"/>
      <point x="141" y="503" type="line"/>
    </contour>
  </outline>
</glyph>
<glyph name="manat" format="2">
  <advance width="650"/>
  <unicode hex="20BC"/>
  <outline>
    <contour>
      <point x="306" y="720" type="line"/>
      <point x="306" y="144" type="line"/>
      <point x="345" y="144" type="line"/>
      <point x="345" y="720" type="line"/>
    </contour>
    <contour>
      <point x="325" y="559" type="curve" smooth="yes"/>
      <point x="492" y="559"/>
      <point x="583" y="384"/>
      <point x="583" y="0" type="curve"/>
      <point x="627" y="0" type="line"/>
      <point x="627" y="381"/>
      <point x="516" y="590"/>
      <point x="325" y="590" type="curve" smooth="yes"/>
      <point x="134" y="590"/>
      <point x="23" y="381"/>
      <point x="23" y="0" type="curve"/>
      <point x="67" y="0" type="line"/>
      <point x="67" y="384"/>
      <point x="158" y="559"/>
    </contour>
  </outline>
</glyph>
<glyph name="arrowleft" format="2">
  <advance width="858"/>
  <unicode hex="2190"/>
  <outline>
    <contour>
      <point x="480" y="560" type="line"/>
      <point x="64" y="360" type="line"/>
      <point x="64" y="346" type="line"/>
      <point x="480" y="146" type="line"/>
      <point x="491" y="159" type="line"/>
      <point x="330" y="324" type="line"/>
      <point x="794" y="324" type="line"/>
      <point x="794" y="382" type="line"/>
      <point x="330" y="382" type="line"/>
      <point x="491" y="547" type="line"/>
    </contour>
  </outline>
</glyph>
<glyph name="uni25BE" format="2">
  <advance width="749"/>
  <unicode hex="25BE"/>
  <outline>
    <contour>
      <point x="64" y="464" type="line"/>
      <point x="374" y="91" type="line"/>
      <point x="685" y="464" type="line"/>
    </contour>
  </outline>
</glyph>
<glyph name="f_f" format="2">
  <advance width="805"/>
  <unicode hex="FB00"/>
  <outline>
    <contour>
      <point x="40" y="508" type="line"/>
      <point x="40" y="480" type="line"/>
      <point x="516" y="480" type="line"/>
      <point x="516" y="508" type="line"/>
    </contour>
    <contour>
      <point x="419" y="508" type="line"/>
      <point x="419" y="480" type="line"/>
      <point x="769" y="480" type="line"/>
      <point x="769" y="508" type="line"/>
    </contour>
    <contour>
      <point x="202" y="38" type="curve"/>
      <point x="202" y="576" type="line" smooth="yes"/>
      <point x="202" y="675"/>
      <point x="246" y="709"/>
      <point x="320" y="709" type="curve" smooth="yes"/>
      <point x="357" y="709"/>
      <point x="388" y="700"/>
      <point x="412" y="692" type="curve"/>
      <point x="412" y="727" type="line"/>
      <point x="391" y="733"/>
      <point x="358" y="737"/>
      <point x="323" y="737" type="curve" smooth="yes"/>
      <point x="227" y="737"/>
      <point x="161" y="690"/>
      <point x="161" y="576" type="curve" smooth="yes"/>
      <point x="161" y="64" type="line" smooth="yes"/>
      <point x="161" y="35"/>
      <point x="123" y="28"/>
      <point x="59" y="28" type="curve" smooth="yes"/>
      <point x="46" y="28" type="line"/>
      <point x="46" y="0" type="line"/>
      <point x="330" y="0" type="line"/>
      <point x="330" y="28" type="line"/>
      <point x="314" y="28" type="line" smooth="yes"/>
      <point x="250" y="28"/>
      <point x="202" y="31"/>
    </contour>
    <contour>
      <point x="539" y="38" type="line"/>
      <point x="539" y="31"/>
      <point x="486" y="28"/>
      <point x="444" y="28" type="curve" smooth="yes"/>
      <point x="424" y="28" type="line"/>
      <point x="424" y="0" type="line"/>
      <point x="706" y="0" type="line"/>
      <point x="706" y="28" type="line"/>
      <point x="691" y="28" type="line" smooth="yes"/>
      <point x="628" y="28"/>
      <point x="580" y="31"/>
      <point x="580" y="38" type="curve" smooth="yes"/>
      <point x="580" y="595" type="line" smooth="yes"/>
      <point x="580" y="694"/>
      <point x="627" y="721"/>
      <point x="703" y="721" type="curve" smooth="yes"/>
      <point x="737" y="721"/>
      <point x="766" y="715"/>
      <point x="790" y="708" type="curve"/>
      <point x="790" y="742" type="line"/>
      <point x="771" y="748"/>
      <point x="740" y="752"/>
      <point x="706" y="752" type="curve" smooth="yes"/>
      <point x="608" y="752"/>
      <point x="539" y="709"/>
      <point x="539" y="595" type="curve"/>
    </contour>
  </outline>
</glyph>
<glyph name="F.alt" format="2">
  <advance width="673"/>
  <outline>
    <contour>
      <point x="52" y="0" type="line"/>
      <point x="335" y="0" type="line"/>
      <point x="335" y="31" type="line"/>
      <point x="315" y="31" type="line" smooth="yes"/>
      <point x="265" y="31"/>
      <point x="204" y="32"/>
      <point x="204" y="67" type="curve" smooth="yes"/>
      <point x="204" y="679" type="line"/>
      <point x="413" y="679" type="line" smooth="yes"/>
      <point x="513" y="679"/>
      <point x="554" y="672"/>
      <point x="559" y="636" type="curve" smooth="yes"/>
      <point x="569" y="546" type="line"/>
      <point x="596" y="546" type="line"/>
      <point x="596" y="710" type="line"/>
      <point x="52" y="710" type="line"/>
      <point x="52" y="679" type="line"/>
      <point x="65" y="679" type="line" smooth="yes"/>
      <point x="122" y="679"/>
      <point x="164" y="672"/>
      <point x="164" y="643" type="curve" smooth="yes"/>
      <point x="164" y="67" type="line" smooth="yes"/>
      <point x="164" y="38"/>
      <point x="122" y="31"/>
      <point x="65" y="31" type="curve" smooth="yes"/>
      <point x="52" y="31" type="line"/>
    </contour>
    <contour>
      <point x="184" y="341" type="line"/>
      <point x="455" y="341" type="line" smooth="yes"/>
      <point x="491" y="341"/>
      <point x="502" y="312"/>
      <point x="502" y="278" type="curve" smooth="yes"/>
      <point x="502" y="270" type="line"/>
      <point x="530" y="270" type="line"/>
      <point x="530" y="444" type="line"/>
      <point x="502" y="444" type="line"/>
      <point x="502" y="437" type="line" smooth="yes"/>
      <point x="502" y="402"/>
      <point x="491" y="372"/>
      <point x="455" y="372" type="curve" smooth="yes"/>
      <point x="184" y="372" type="line"/>
    </contour>
  </outline>
</glyph>
<glyph name="acute.ucpl" format="2">
  <advance width="581"/>
  <anchor x="216.6516" y="694.0" name="_top"/>
  <outline>
    <contour>
      <point x="221" y="853" type="curve" smooth="yes"/>
      <point x="211" y="767" type="line"/>
      <point x="211" y="750" type="line"/>
      <point x="229" y="750" type="line"/>
      <point x="273" y="833" type="line" smooth="yes"/>
      <point x="279" y="849"/>
      <point x="285" y="864"/>
      <point x="285" y="878" type="curve" smooth="yes"/>
      <point x="285" y="894"/>
      <point x="274" y="904"/>
      <point x="257" y="904" type="curve" smooth="yes"/>
      <point x="234" y="904"/>
      <point x="225" y="887"/>
    </contour>
  </outline>
</glyph>
<glyph name="breve.uc" format="2">
  <advance width="580"/>
  <anchor x="294.2712" y="694.0" name="_top"/>
  <outline>
    <contour>
      <point x="294" y="759" type="curve" smooth="yes"/>
      <point x="203" y="759"/>
      <point x="149" y="808"/>
      <point x="144" y="891" type="curve"/>
      <point x="175" y="891" type="line"/>
      <point x="185" y="828"/>
      <point x="220" y="800"/>
      <point x="294" y="800" type="curve" smooth="yes"/>
      <point x="367" y="800"/>
      <point x="405" y="828"/>
      <point x="416" y="891" type="curve"/>
      <point x="444" y="891" type="line"/>
      <point x="439" y="808"/>
      <point x="385" y="759"/>
    </contour>
  </outline>
</glyph>
<glyph name="breve_tilde.uc" format="2">
  <advance width="581"/>
  <anchor x="280.42" y="694.0" name="_top"/>
  <outline>
    <contour>
      <point x="284" y="759" type="curve" smooth="yes"/>
      <point x="193" y="759"/>
      <point x="139" y="806"/>
      <point x="133" y="884" type="curve"/>
      <point x="164" y="884" type="line"/>
      <point x="175" y="826"/>
      <point x="210" y="800"/>
      <point x="284" y="800" type="curve" smooth="yes"/>
      <point x="357" y="800"/>
      <point x="395" y="826"/>
      <point x="405" y="884" type="curve"/>
      <point x="435" y="884" type="line"/>
      <point x="429" y="806"/>
      <point x="375" y="759"/>
    </contour>
    <contour>
      <point x="355" y="928" type="curve" smooth="yes"/>
      <point x="407" y="928"/>
      <point x="433" y="961"/>
      <point x="453" y="1020" type="curve"/>
      <point x="423" y="1029" type="line"/>
      <point x="407" y="988"/>
      <point x="390" y="962"/>
      <point x="359" y="962" type="curve" smooth="yes"/>
      <point x="309" y="962"/>
      <point x="286" y="1032"/>
      <point x="209" y="1032" type="curve" smooth="yes"/>
      <point x="158" y="1032"/>
      <point x="128" y="1000"/>
      <point x="116" y="938" type="curve"/>
      <point x="145" y="928" type="line"/>
      <point x="157" y="973"/>
      <point x="169" y="998"/>
      <point x="205" y="998" type="curve" smooth="yes"/>
      <point x="255" y="998"/>
      <point x="276" y="928"/>
    </contour>
  </outline>
</glyph>
<glyph name="caroncomb.alt" format="2">
  <anchor x="-267.11760000000004" y="524.392" name="_right"/>
  <outline>
    <contour>
      <point x="-200" y="526" type="line"/>
      <point x="-225" y="526" type="line"/>
      <point x="-225" y="536" type="line"/>
      <point x="-204" y="710" type="line"/>
      <point x="-151" y="710" type="line"/>
    </contour>
  </outline>
</glyph>
<glyph name="circumflex_tilde" format="2">
  <advance width="581"/>
  <anchor x="278.0604" y="551.0" name="_top"/>
  <outline>
    <contour>
      <point x="346" y="778" type="curve" smooth="yes"/>
      <point x="398" y="778"/>
      <point x="419" y="815"/>
      <point x="437" y="877" type="curve"/>
      <point x="407" y="886" type="line"/>
      <point x="393" y="843"/>
      <point x="381" y="813"/>
      <point x="353" y="813" type="curve" smooth="yes"/>
      <point x="308" y="813"/>
      <point x="291" y="889"/>
      <point x="222" y="889" type="curve" smooth="yes"/>
      <point x="176" y="889"/>
      <point x="148" y="855"/>
      <point x="135" y="789" type="curve"/>
      <point x="166" y="778" type="line"/>
      <point x="176" y="828"/>
      <point x="186" y="855"/>
      <point x="217" y="855" type="curve" smooth="yes"/>
      <point x="262" y="855"/>
      <point x="278" y="778"/>
    </contour>
    <contour>
      <point x="328" y="729" type="line"/>
      <point x="442" y="606" type="line"/>
      <point x="442" y="596" type="line"/>
      <point x="416" y="596" type="line"/>
      <point x="260" y="714" type="line"/>
      <point x="313" y="714" type="line"/>
      <point x="159" y="596" type="line"/>
      <point x="140" y="596" type="line"/>
      <point x="140" y="606" type="line"/>
      <point x="251" y="729" type="line"/>
    </contour>
  </outline>
</glyph>
<glyph name="colonsign" format="2">
  <advance width="650"/>
  <outline>
    <contour>
      <point x="375" y="700" type="curve" smooth="yes"/>
      <point x="182" y="700"/>
      <point x="41" y="569"/>
      <point x="41" y="355" type="curve" smooth="yes"/>
      <point x="41" y="150"/>
      <point x="173" y="10"/>
      <point x="360" y="10" type="curve" smooth="yes"/>
      <point x="508" y="10"/>
      <point x="596" y="98"/>
      <point x="630" y="220" type="curve"/>
      <point x="598" y="237" type="line"/>
      <point x="571" y="130"/>
      <point x="497" y="41"/>
      <point x="359" y="41" type="curve" smooth="yes"/>
      <point x="193" y="41"/>
      <point x="85" y="166"/>
      <point x="85" y="355" type="curve" smooth="yes"/>
      <point x="85" y="557"/>
      <point x="206" y="669"/>
      <point x="375" y="669" type="curve" smooth="yes"/>
      <point x="495" y="669"/>
      <point x="568" y="627"/>
      <point x="597" y="586" type="curve"/>
      <point x="611" y="573"/>
      <point x="615" y="617"/>
      <point x="570" y="629" type="curve"/>
      <point x="570" y="529" type="line"/>
      <point x="621" y="529" type="line"/>
      <point x="621" y="626" type="line"/>
      <point x="581" y="659"/>
      <point x="503" y="700"/>
    </contour>
    <contour>
      <point x="289" y="790" type="line"/>
      <point x="142" y="-120" type="line"/>
      <point x="181" y="-120" type="line"/>
      <point x="328" y="790" type="line"/>
    </contour>
    <contour>
      <point x="458" y="790" type="line"/>
      <point x="311" y="-120" type="line"/>
      <point x="351" y="-120" type="line"/>
      <point x="497" y="790" type="line"/>
    </contour>
  </outline>
</glyph>
<glyph name="f.alt" format="2">
  <advance width="426"/>
  <outline>
    <contour>
      <point x="40" y="508" type="line"/>
      <point x="40" y="480" type="line"/>
      <point x="391" y="480" type="line"/>
      <point x="391" y="508" type="line"/>
    </contour>
    <contour>
      <point x="327" y="0" type="line"/>
      <point x="327" y="28" type="line"/>
      <point x="312" y="28" type="line" smooth="yes"/>
      <point x="250" y="28"/>
      <point x="202" y="31"/>
      <point x="202" y="38" type="curve" smooth="yes"/>
      <point x="202" y="601" type="line" smooth="yes"/>
      <point x="202" y="694"/>
      <point x="262" y="721"/>
      <point x="337" y="721" type="curve"/>
      <point x="386" y="721"/>
      <point x="420" y="708"/>
      <point x="452" y="677" type="curve"/>
      <point x="458" y="702"/>
      <point x="449" y="704"/>
      <point x="427" y="725" type="curve"/>
      <point x="427" y="638" type="line"/>
      <point x="479" y="638" type="line"/>
      <point x="479" y="711" type="line"/>
      <point x="451" y="732"/>
      <point x="408" y="752"/>
      <point x="337" y="752" type="curve"/>
      <point x="238" y="752"/>
      <point x="161" y="709"/>
      <point x="161" y="601" type="curve" smooth="yes"/>
      <point x="161" y="64" type="line" smooth="yes"/>
      <point x="161" y="35"/>
      <point x="123" y="28"/>
      <point x="59" y="28" type="curve" smooth="yes"/>
      <point x="46" y="28" type="line"/>
      <point x="46" y="0" type="line"/>
    </contour>
  </outline>
</glyph>
<glyph name="f_f.alt" format="2">
  <advance width="805"/>
  <outline>
    <contour>
      <point x="40" y="508" type="line"/>
      <point x="40" y="480" type="line"/>
      <point x="511" y="480" type="line"/>
      <point x="511" y="508" type="line"/>
    </contour>
    <contour>
      <point x="419" y="508" type="line"/>
      <point x="419" y="480" type="line"/>
      <point x="769" y="480" type="line"/>
      <point x="769" y="508" type="line"/>
    </contour>
    <contour>
      <point x="539" y="38" type="line" smooth="yes"/>
      <point x="539" y="31"/>
      <point x="486" y="28"/>
      <point x="444" y="28" type="curve" smooth="yes"/>
      <point x="424" y="28" type="line"/>
      <point x="424" y="0" type="line"/>
      <point x="706" y="0" type="line"/>
      <point x="706" y="28" type="line"/>
      <point x="691" y="28" type="line" smooth="yes"/>
      <point x="628" y="28"/>
      <point x="580" y="31"/>
      <point x="580" y="38" type="curve" smooth="yes"/>
      <point x="580" y="601" type="line" smooth="yes"/>
      <point x="580" y="694"/>
      <point x="640" y="721"/>
      <point x="714" y="721" type="curve" smooth="yes"/>
      <point x="765" y="721"/>
      <point x="799" y="708"/>
      <point x="830" y="677" type="curve"/>
      <point x="836" y="702"/>
      <point x="828" y="704"/>
      <point x="806" y="725" type="curve"/>
      <point x="806" y="638" type="line"/>
      <point x="858" y="638" type="line"/>
      <point x="858" y="711" type="line"/>
      <point x="830" y="732"/>
      <point x="786" y="752"/>
      <point x="714" y="752" type="curve" smooth="yes"/>
      <point x="617" y="752"/>
      <point x="539" y="709"/>
      <point x="539" y="601" type="curve" smooth="yes"/>
    </contour>
    <contour>
      <point x="202" y="38" type="curve" smooth="yes"/>
      <point x="202" y="559" type="line" smooth="yes"/>
      <point x="202" y="669"/>
      <point x="291" y="701"/>
      <point x="392" y="701" type="curve" smooth="yes"/>
      <point x="465" y="701"/>
      <point x="529" y="683"/>
      <point x="569" y="636" type="curve"/>
      <point x="575" y="677"/>
      <point x="562" y="681"/>
      <point x="539" y="691" type="curve"/>
      <point x="539" y="568" type="line"/>
      <point x="578" y="618" type="line"/>
      <point x="578" y="681" type="line"/>
      <point x="547" y="707"/>
      <point x="484" y="732"/>
      <point x="392" y="732" type="curve" smooth="yes"/>
      <point x="261" y="732"/>
      <point x="161" y="686"/>
      <point x="161" y="559" type="curve" smooth="yes"/>
      <point x="161" y="64" type="line"/>
      <point x="161" y="35"/>
      <point x="123" y="28"/>
      <point x="59" y="28" type="curve" smooth="yes"/>
      <point x="46" y="28" type="line"/>
      <point x="46" y="0" type="line"/>
      <point x="330" y="0" type="line"/>
      <point x="330" y="28" type="line"/>
      <point x="314" y="28" type="line" smooth="yes"/>
      <point x="250" y="28"/>
      <point x="202" y="31"/>
    </contour>
  </outline>
</glyph>
<glyph name="heartsuitwhite" format="2">
  <advance width="1046"/>
  <outline>
    <contour>
      <point x="530" y="461" type="line"/>
      <point x="565" y="541"/>
      <point x="638" y="641"/>
      <point x="744" y="641" type="curve" smooth="yes"/>
      <point x="831" y="641"/>
      <point x="880" y="594"/>
      <point x="880" y="528" type="curve" smooth="yes"/>
      <point x="880" y="446"/>
      <point x="832" y="397"/>
      <point x="755" y="316" type="curve" smooth="yes"/>
      <point x="528" y="83" type="line"/>
      <point x="518" y="83" type="line"/>
      <point x="291" y="316" type="line" smooth="yes"/>
      <point x="213" y="397"/>
      <point x="166" y="446"/>
      <point x="166" y="528" type="curve" smooth="yes"/>
      <point x="166" y="594"/>
      <point x="215" y="641"/>
      <point x="302" y="641" type="curve" smooth="yes"/>
      <point x="408" y="641"/>
      <point x="481" y="541"/>
      <point x="518" y="461" type="curve"/>
    </contour>
    <contour>
      <point x="510" y="-10" type="line"/>
      <point x="537" y="-10" type="line"/>
      <point x="812" y="273" type="line" smooth="yes"/>
      <point x="910" y="375"/>
      <point x="965" y="437"/>
      <point x="965" y="535" type="curve" smooth="yes"/>
      <point x="965" y="632"/>
      <point x="888" y="710"/>
      <point x="753" y="710" type="curve" smooth="yes"/>
      <point x="646" y="710"/>
      <point x="568" y="657"/>
      <point x="524" y="569" type="curve"/>
      <point x="478" y="657"/>
      <point x="401" y="710"/>
      <point x="292" y="710" type="curve" smooth="yes"/>
      <point x="158" y="710"/>
      <point x="81" y="632"/>
      <point x="81" y="535" type="curve" smooth="yes"/>
      <point x="81" y="437"/>
      <point x="136" y="375"/>
      <point x="235" y="273" type="curve" smooth="yes"/>
    </contour>
  </outline>
</glyph>
<glyph name="nine.lin" format="2">
  <advance width="650"/>
  <outline>
    <contour>
      <point x="109" y="16" type="line"/>
      <point x="372" y="32"/>
      <point x="547" y="186"/>
      <point x="547" y="427" type="curve" smooth="yes"/>
      <point x="547" y="602"/>
      <point x="454" y="689"/>
      <point x="318" y="689" type="curve" smooth="yes"/>
      <point x="178" y="689"/>
      <point x="95" y="601"/>
      <point x="95" y="491" type="curve" smooth="yes"/>
      <point x="95" y="387"/>
      <point x="173" y="309"/>
      <point x="301" y="309" type="curve" smooth="yes"/>
      <point x="418" y="309"/>
      <point x="511" y="384"/>
      <point x="563" y="472" type="curve"/>
      <point x="576" y="447" type="line"/>
      <point x="529" y="361"/>
      <point x="427" y="278"/>
      <point x="299" y="278" type="curve" smooth="yes"/>
      <point x="150" y="278"/>
      <point x="51" y="366"/>
      <point x="51" y="491" type="curve" smooth="yes"/>
      <point x="51" y="616"/>
      <point x="162" y="720"/>
      <point x="318" y="720" type="curve" smooth="yes"/>
      <point x="474" y="720"/>
      <point x="591" y="612"/>
      <point x="591" y="427" type="curve" smooth="yes"/>
      <point x="591" y="176"/>
      <point x="399" y="1"/>
      <point x="115" y="-15" type="curve"/>
    </contour>
  </outline>
</glyph>
<glyph name="one.old" format="2">
  <advance width="650"/>
  <outline>
    <contour>
      <point x="390" y="64" type="curve" smooth="yes"/>
      <point x="390" y="548" type="line"/>
      <point x="366" y="548" type="line"/>
      <point x="326" y="496"/>
      <point x="245" y="474"/>
      <point x="139" y="472" type="curve"/>
      <point x="139" y="441" type="line"/>
      <point x="237" y="439"/>
      <point x="335" y="465"/>
      <point x="357" y="511" type="curve"/>
      <point x="362" y="524"/>
      <point x="366" y="531"/>
      <point x="350" y="509" type="curve"/>
      <point x="350" y="64" type="line" smooth="yes"/>
      <point x="350" y="35"/>
      <point x="303" y="28"/>
      <point x="228" y="28" type="curve" smooth="yes"/>
      <point x="149" y="28" type="line"/>
      <point x="149" y="0" type="line"/>
      <point x="583" y="0" type="line"/>
      <point x="583" y="28" type="line"/>
      <point x="524" y="28" type="line" smooth="yes"/>
      <point x="442" y="28"/>
      <point x="390" y="35"/>
    </contour>
  </outline>
</glyph>
<glyph name="six.lin" format="2">
  <advance width="650"/>
  <outline>
    <contour>
      <point x="513" y="709" type="line"/>
      <point x="277" y="673"/>
      <point x="104" y="503"/>
      <point x="104" y="287" type="curve" smooth="yes"/>
      <point x="104" y="112"/>
      <point x="200" y="21"/>
      <point x="338" y="21" type="curve" smooth="yes"/>
      <point x="472" y="21"/>
      <point x="555" y="116"/>
      <point x="555" y="234" type="curve" smooth="yes"/>
      <point x="555" y="345"/>
      <point x="480" y="427"/>
      <point x="351" y="427" type="curve" smooth="yes"/>
      <point x="238" y="427"/>
      <point x="141" y="354"/>
      <point x="87" y="266" type="curve"/>
      <point x="74" y="290" type="line"/>
      <point x="123" y="377"/>
      <point x="230" y="459"/>
      <point x="354" y="459" type="curve" smooth="yes"/>
      <point x="504" y="459"/>
      <point x="599" y="366"/>
      <point x="599" y="234" type="curve" smooth="yes"/>
      <point x="599" y="101"/>
      <point x="488" y="-10"/>
      <point x="338" y="-10" type="curve" smooth="yes"/>
      <point x="180" y="-10"/>
      <point x="59" y="102"/>
      <point x="59" y="287" type="curve" smooth="yes"/>
      <point x="59" y="503"/>
      <point x="241" y="704"/>
      <point x="508" y="740" type="curve"/>
    </contour>
  </outline>
</glyph>
<glyph name="six.old" format="2">
  <advance width="650"/>
  <outline>
    <contour>
      <point x="513" y="709" type="line"/>
      <point x="278" y="673"/>
      <point x="104" y="503"/>
      <point x="104" y="288" type="curve" smooth="yes"/>
      <point x="104" y="113"/>
      <point x="201" y="21"/>
      <point x="338" y="21" type="curve" smooth="yes"/>
      <point x="471" y="21"/>
      <point x="554" y="116"/>
      <point x="554" y="234" type="curve" smooth="yes"/>
      <point x="554" y="345"/>
      <point x="479" y="427"/>
      <point x="352" y="427" type="curve" smooth="yes"/>
      <point x="239" y="427"/>
      <point x="142" y="354"/>
      <point x="88" y="266" type="curve"/>
      <point x="75" y="290" type="line"/>
      <point x="124" y="377"/>
      <point x="230" y="459"/>
      <point x="354" y="459" type="curve" smooth="yes"/>
      <point x="503" y="459"/>
      <point x="598" y="366"/>
      <point x="598" y="234" type="curve" smooth="yes"/>
      <point x="598" y="101"/>
      <point x="487" y="-10"/>
      <point x="338" y="-10" type="curve" smooth="yes"/>
      <point x="181" y="-10"/>
      <point x="60" y="102"/>
      <point x="60" y="287" type="curve" smooth="yes"/>
      <point x="60" y="503"/>
      <point x="241" y="704"/>
      <point x="508" y="740" type="curve"/>
    </contour>
  </outline>
</glyph>
<glyph name="sterling.alt" format="2">
  <advance width="650"/>
  <outline>
    <contour>
      <point x="34" y="353" type="line"/>
      <point x="34" y="322" type="line"/>
      <point x="460" y="322" type="line"/>
      <point x="460" y="353" type="line"/>
    </contour>
    <contour>
      <point x="50" y="0" type="line"/>
      <point x="586" y="0" type="line"/>
      <point x="586" y="170" type="line"/>
      <point x="558" y="170" type="line"/>
      <point x="547" y="75" type="line" smooth="yes"/>
      <point x="544" y="39"/>
      <point x="502" y="32"/>
      <point x="402" y="32" type="curve"/>
      <point x="82" y="32" type="line"/>
      <point x="92" y="28" type="line"/>
      <point x="199" y="68"/>
      <point x="254" y="138"/>
      <point x="254" y="223" type="curve" smooth="yes"/>
      <point x="254" y="332"/>
      <point x="154" y="411"/>
      <point x="154" y="528" type="curve" smooth="yes"/>
      <point x="154" y="631"/>
      <point x="236" y="687"/>
      <point x="350" y="687" type="curve" smooth="yes"/>
      <point x="435" y="687"/>
      <point x="483" y="657"/>
      <point x="516" y="631" type="curve"/>
      <point x="516" y="641"/>
      <point x="503" y="657"/>
      <point x="492" y="671" type="curve"/>
      <point x="492" y="571" type="line"/>
      <point x="543" y="571" type="line"/>
      <point x="543" y="661" type="line"/>
      <point x="511" y="684"/>
      <point x="451" y="718"/>
      <point x="350" y="718" type="curve" smooth="yes"/>
      <point x="210" y="718"/>
      <point x="110" y="643"/>
      <point x="110" y="528" type="curve" smooth="yes"/>
      <point x="110" y="402"/>
      <point x="215" y="314"/>
      <point x="215" y="222" type="curve" smooth="yes"/>
      <point x="215" y="125"/>
      <point x="151" y="79"/>
      <point x="50" y="37" type="curve"/>
    </contour>
  </outline>
</glyph>
<glyph name="zero.old" format="2">
  <advance width="650"/>
  <outline>
    <contour>
      <point x="325" y="-11" type="curve" smooth="yes"/>
      <point x="488" y="-11"/>
      <point x="603" y="105"/>
      <point x="603" y="274" type="curve" smooth="yes"/>
      <point x="603" y="442"/>
      <point x="488" y="558"/>
      <point x="325" y="558" type="curve" smooth="yes"/>
      <point x="162" y="558"/>
      <point x="47" y="442"/>
      <point x="47" y="274" type="curve" smooth="yes"/>
      <point x="47" y="105"/>
      <point x="162" y="-11"/>
    </contour>
    <contour>
      <point x="325" y="20" type="curve" smooth="yes"/>
      <point x="176" y="20"/>
      <point x="91" y="119"/>
      <point x="91" y="274" type="curve" smooth="yes"/>
      <point x="91" y="427"/>
      <point x="176" y="527"/>
      <point x="325" y="527" type="curve" smooth="yes"/>
      <point x="474" y="527"/>
      <point x="559" y="427"/>
      <point x="559" y="274" type="curve" smooth="yes"/>
      <point x="559" y="118"/>
      <point x="474" y="20"/>
    </contour>
  </outline>
</glyph>
